<svg xmlns="http://www.w3.org/2000/svg" xmlns:xlink="http://www.w3.org/1999/xlink" id="Layer_1" width="596.68" height="589.867" x="0" y="0" enable-background="new 7.66 101.067 596.68 589.867" version="1.1" viewBox="7.66 101.067 596.68 589.867" xml:space="preserve"><line x1="440.287" x2="411.33" y1="183.479" y2="233.629" fill="#FB0D54" stroke="#781B34" stroke-width="5"/><line x1="440.287" x2="411.33" y1="183.479" y2="233.629" fill="#FB0D54" stroke="#781B34" stroke-width="5"/><line x1="562.986" x2="505.043" y1="396" y2="396" fill="#FB0D54" stroke="#781B34" stroke-width="5"/><line x1="130.134" x2="72.191" y1="396" y2="396" fill="#FB0D54" stroke="#781B34" stroke-width="5"/><line x1="155.217" x2="105.068" y1="302.258" y2="273.301" fill="#FB0D54" stroke="#781B34" stroke-width="5"/><line x1="155.217" x2="105.068" y1="302.258" y2="273.301" fill="#FB0D54" stroke="#781B34" stroke-width="5"/><line x1="530.109" x2="479.959" y1="518.699" y2="489.742" fill="#FB0D54" stroke="#781B34" stroke-width="5"/><line x1="530.109" x2="479.959" y1="518.699" y2="489.742" fill="#FB0D54" stroke="#781B34" stroke-width="5"/><line x1="317.588" x2="317.588" y1="208.545" y2="150.603" fill="#FB0D54" stroke="#781B34" stroke-width="5"/><line x1="317.588" x2="317.588" y1="641.397" y2="583.455" fill="#FB0D54" stroke="#781B34" stroke-width="5"/><line x1="223.846" x2="194.89" y1="233.629" y2="183.479" fill="#FB0D54" stroke="#781B34" stroke-width="5"/><line x1="223.846" x2="194.89" y1="233.629" y2="183.479" fill="#FB0D54" stroke="#781B34" stroke-width="5"/><line x1="440.287" x2="411.33" y1="608.521" y2="558.371" fill="#FB0D54" stroke="#781B34" stroke-width="5"/><line x1="440.287" x2="411.33" y1="608.521" y2="558.371" fill="#FB0D54" stroke="#781B34" stroke-width="5"/><line x1="530.109" x2="479.959" y1="273.301" y2="302.258" fill="#FB0D54" stroke="#781B34" stroke-width="5"/><line x1="530.109" x2="479.959" y1="273.301" y2="302.258" fill="#FB0D54" stroke="#781B34" stroke-width="5"/><line x1="155.217" x2="105.068" y1="489.742" y2="518.699" fill="#FB0D54" stroke="#781B34" stroke-width="5"/><line x1="155.217" x2="105.068" y1="489.742" y2="518.699" fill="#FB0D54" stroke="#781B34" stroke-width="5"/><line x1="219.758" x2="190.802" y1="565.872" y2="616.021" fill="#FB0D54" stroke="#781B34" stroke-width="5"/><line x1="219.758" x2="190.802" y1="565.872" y2="616.021" fill="#FB0D54" stroke="#781B34" stroke-width="5"/><circle cx="101.5" cy="267.851" r="34.084" fill="#FB0D54" stroke="#781B34" stroke-width="5"/><circle cx="567.755" cy="397.363" r="34.084" fill="#FB0D54" stroke="#781B34" stroke-width="5"/><circle cx="548.672" cy="261.713" r="34.084" fill="#FB0D54" stroke="#781B34" stroke-width="5"/><circle cx="440.287" cy="179.911" r="34.084" fill="#FB0D54" stroke="#781B34" stroke-width="5"/><circle cx="317.588" cy="137.651" r="34.084" fill="#FB0D54" stroke="#781B34" stroke-width="5"/><circle cx="179.213" cy="156.059" r="34.084" fill="#FB0D54" stroke="#781B34" stroke-width="5"/><circle cx="530.264" cy="518.699" r="34.084" fill="#FB0D54" stroke="#781B34" stroke-width="5"/><circle cx="445.738" cy="620.264" r="34.084" fill="#FB0D54" stroke="#781B34" stroke-width="5"/><circle cx="317.588" cy="654.349" r="34.084" fill="#FB0D54" stroke="#781B34" stroke-width="5"/><circle cx="179.213" cy="635.941" r="34.084" fill="#FB0D54" stroke="#781B34" stroke-width="5"/><circle cx="78.328" cy="533.013" r="34.084" fill="#FB0D54" stroke="#781B34" stroke-width="5"/><circle cx="44.244" cy="396.681" r="34.084" fill="#FB0D54" stroke="#781B34" stroke-width="5"/><circle cx="317.356" cy="396" r="196.629" fill="#FB0D54" stroke="#781B34" stroke-width="5"/></svg>